<?xml version="1.0" encoding="utf-8"?>
<!-- Generator: Adobe Illustrator 24.3.0, SVG Export Plug-In . SVG Version: 6.00 Build 0)  -->
<svg version="1.1" id="Layer_1" xmlns="http://www.w3.org/2000/svg" xmlns:xlink="http://www.w3.org/1999/xlink" x="0px" y="0px"
	 viewBox="0 0 8 8" style="enable-background:new 0 0 8 8;" xml:space="preserve">
<style type="text/css">
	.st0{fill:#FFFFFF;}
	.st1{fill-rule:evenodd;clip-rule:evenodd;fill:#FFFFFF;}
</style>
<g>
	<path class="st0" d="M5.5,3c0,0.8-0.7,1.5-1.5,1.5S2.5,3.8,2.5,3S3.2,1.5,4,1.5S5.5,2.2,5.5,3z"/>
	<path class="st1" d="M0,4c0-2.2,1.8-4,4-4s4,1.8,4,4S6.2,8,4,8S0,6.2,0,4z M4,0.5C2.1,0.5,0.5,2.1,0.5,4c0,0.8,0.3,1.6,0.8,2.2
		C1.6,5.6,2.4,5,4,5s2.4,0.6,2.7,1.2c1.2-1.5,1-3.7-0.5-4.9C5.6,0.8,4.8,0.5,4,0.5z"/>
</g>
</svg>
